<svg width="54" height="19" viewBox="0 0 54 19" fill="none" xmlns="http://www.w3.org/2000/svg">
<path d="M7.17188 2.10938H6.89062C5.46875 2.10938 4.39844 2.43359 3.67969 3.08203C2.8125 3.86328 2.37891 5.15625 2.37891 6.96094C2.37891 7.46094 2.43359 7.85938 2.54297 8.15625C2.57422 8.25781 2.61328 8.34766 2.66016 8.42578C2.69141 8.48047 2.70703 8.53516 2.70703 8.58984C1.83984 8.58984 1.20703 8.41797 0.808594 8.07422C0.363281 7.69922 0.140625 7.09766 0.140625 6.26953C0.140625 5.44141 0.292969 4.65625 0.597656 3.91406C0.910156 3.16406 1.38281 2.50781 2.01562 1.94531C2.69531 1.33594 3.55859 0.863281 4.60547 0.527344C5.66016 0.191406 6.90234 0.0234375 8.33203 0.0234375C9.15234 0.0234375 9.9375 0.0703125 10.6875 0.164062C10.9219 0.1875 11.2266 0.230469 11.6016 0.292969C12.2266 0.410156 12.8281 0.488281 13.4062 0.527344C13.6875 0.558594 14.043 0.574219 14.4727 0.574219C15.0039 0.574219 15.5117 0.527344 15.9961 0.433594C16.4805 0.339844 16.9023 0.21875 17.2617 0.0703125C17.2227 1.11719 16.9531 1.88672 16.4531 2.37891C15.9609 2.87109 15.2305 3.11719 14.2617 3.11719C13.7383 3.11719 13.2109 3.07422 12.6797 2.98828C12.1484 2.90234 11.4336 2.76953 10.5352 2.58984L7.21875 18H3.77344L7.17188 2.10938ZM13.8825 4.69922C13.6247 4.69922 13.3786 4.65234 13.1442 4.55859C12.9098 4.45703 12.7067 4.32031 12.5348 4.14844C12.363 3.98438 12.2262 3.78516 12.1247 3.55078C12.0309 3.31641 11.9841 3.07031 11.9841 2.8125C11.9841 2.55469 12.0309 2.30859 12.1247 2.07422C12.2262 1.83984 12.363 1.63281 12.5348 1.45312C12.7067 1.27344 12.9098 1.13672 13.1442 1.04297C13.3786 0.941406 13.6247 0.890625 13.8825 0.890625C14.1403 0.890625 14.3864 0.941406 14.6208 1.04297C14.8552 1.13672 15.0622 1.27344 15.2419 1.45312C15.4216 1.63281 15.5583 1.83984 15.652 2.07422C15.7536 2.30859 15.8044 2.55469 15.8044 2.8125C15.8044 3.07031 15.7536 3.31641 15.652 3.55078C15.5583 3.78516 15.4216 3.98438 15.2419 4.14844C15.0622 4.32031 14.8552 4.45703 14.6208 4.55859C14.3864 4.65234 14.1403 4.69922 13.8825 4.69922ZM12.2536 18.1406C11.488 18.1406 10.8825 17.9141 10.4372 17.4609C9.93719 16.9609 9.68719 16.2305 9.68719 15.2695C9.68719 14.8164 9.74969 14.293 9.87469 13.6992L11.5036 6H14.9606L13.238 14.1562C13.1755 14.3594 13.1442 14.6172 13.1442 14.9297C13.1442 15.2578 13.2184 15.4883 13.3669 15.6211C13.5231 15.7539 13.7731 15.8203 14.1169 15.8203C14.3512 15.8203 14.5778 15.7695 14.7966 15.668C15.0231 15.5586 15.2302 15.4102 15.4177 15.2227C15.8005 14.8398 16.0895 14.332 16.2848 13.6992H17.2927C16.863 14.9102 16.3239 15.875 15.6755 16.5938C15.1286 17.1797 14.5114 17.6016 13.8239 17.8594C13.3239 18.0469 12.8005 18.1406 12.2536 18.1406ZM29.2064 18.1406C28.2142 18.1406 27.4798 17.8594 27.0033 17.2969C26.5892 16.8125 26.3822 16.1914 26.3822 15.4336C26.3822 15.0742 26.4252 14.6562 26.5111 14.1797C26.6048 13.7031 26.7416 13.0898 26.9213 12.3398C27.1009 11.5742 27.2338 10.9648 27.3197 10.5117C27.4134 10.0508 27.4603 9.65234 27.4603 9.31641C27.4603 8.49609 27.1713 8.08594 26.5931 8.08594C26.1869 8.08594 25.8119 8.30078 25.4681 8.73047C25.1791 9.09766 24.9291 9.62109 24.7181 10.3008L23.0892 18H19.6322L21.39 9.71484C21.4369 9.52734 21.4603 9.32812 21.4603 9.11719C21.4603 8.79688 21.4095 8.55078 21.308 8.37891C21.1752 8.16797 20.9838 8.0625 20.7338 8.0625C20.2806 8.0625 19.8861 8.28125 19.5502 8.71875C19.2533 9.09375 18.9994 9.62109 18.7884 10.3008L17.1595 18H13.7025L16.2455 6H19.7025L19.4447 7.24219C19.9134 6.71875 20.4252 6.34766 20.9798 6.12891C21.4173 5.96484 21.8822 5.88281 22.3744 5.88281C23.0463 5.88281 23.5814 6.03906 23.9798 6.35156C24.4252 6.70312 24.7103 7.23438 24.8353 7.94531C25.3509 7.14844 25.9447 6.58594 26.6166 6.25781C27.0931 6.02344 27.6127 5.90625 28.1752 5.90625C28.9798 5.90625 29.6166 6.11719 30.0853 6.53906C30.5853 7 30.8353 7.69141 30.8353 8.61328C30.8353 9.13672 30.7377 9.85938 30.5423 10.7812C30.4642 11.1641 30.3705 11.5508 30.2611 11.9414C30.0658 12.6914 29.9056 13.3828 29.7806 14.0156C29.7181 14.3438 29.6869 14.6094 29.6869 14.8125C29.6869 15.1328 29.7572 15.3828 29.8978 15.5625C30.0463 15.7344 30.2963 15.8203 30.6478 15.8203C31.1244 15.8203 31.5267 15.625 31.8548 15.2344C32.1048 14.9375 32.3744 14.4258 32.6634 13.6992H33.6713C33.0775 15.457 32.3275 16.6875 31.4213 17.3906C30.7806 17.8906 30.0423 18.1406 29.2064 18.1406ZM34.1709 18.1406C33.0772 18.1406 32.2452 17.875 31.6748 17.3438C31.1045 16.8047 30.8194 16.0469 30.8194 15.0703C30.8194 14.5469 30.8741 14.0898 30.9834 13.6992L33.5498 1.67578L37.1006 1.19531L35.9522 6.59766C36.4131 6.31641 36.8038 6.12891 37.1241 6.03516C37.3584 5.96484 37.6241 5.92969 37.9209 5.92969C38.8194 5.92969 39.503 6.23047 39.9717 6.83203C40.4952 7.51172 40.7569 8.57812 40.7569 10.0312C40.7569 10.5312 40.71 11.0742 40.6163 11.6602C40.5225 12.2383 40.378 12.8125 40.1827 13.3828C39.7139 14.75 39.0342 15.8438 38.1436 16.6641C37.0655 17.6484 35.7413 18.1406 34.1709 18.1406ZM35.5186 15.8203C36.003 15.8203 36.4795 15.4961 36.9483 14.8477C37.3545 14.2695 37.6905 13.5117 37.9561 12.5742C38.2061 11.6523 38.3311 10.7734 38.3311 9.9375C38.3311 9.28906 38.2295 8.75781 38.0264 8.34375C37.917 8.11719 37.7803 7.94141 37.6163 7.81641C37.4522 7.69141 37.2647 7.62891 37.0538 7.62891C36.7803 7.62891 36.5342 7.65625 36.3155 7.71094C35.9873 7.79688 35.7608 7.91406 35.6358 8.0625L34.3233 14.1562C34.2764 14.3516 34.253 14.5352 34.253 14.707C34.253 15.4492 34.6748 15.8203 35.5186 15.8203ZM42.3464 18.1406C41.5808 18.1406 40.9753 17.9141 40.53 17.4609C40.03 16.9609 39.78 16.2305 39.78 15.2695C39.78 14.8164 39.8425 14.293 39.9675 13.6992L41.5964 6H45.0534L43.3308 14.1562C43.2839 14.3984 43.2605 14.625 43.2605 14.8359C43.2605 15.4922 43.4987 15.8203 43.9753 15.8203C44.4128 15.8203 44.8073 15.6211 45.1589 15.2227C45.4402 14.8867 45.6862 14.3789 45.8972 13.6992L47.5261 6H50.9831L49.2605 14.1562C49.1902 14.3906 49.155 14.6484 49.155 14.9297C49.155 15.2578 49.2331 15.4883 49.3894 15.6211C49.5456 15.7539 49.7956 15.8203 50.1394 15.8203C50.5847 15.8203 50.9831 15.6211 51.3347 15.2227C51.6472 14.8711 51.8972 14.3633 52.0847 13.6992H53.0925C52.6628 14.918 52.1433 15.8828 51.5339 16.5938C51.0183 17.1797 50.4362 17.6016 49.7878 17.8594C49.3112 18.0469 48.8073 18.1406 48.2761 18.1406C47.5886 18.1406 47.0417 17.9492 46.6355 17.5664C46.2292 17.1836 45.9831 16.6172 45.8972 15.8672C45.3503 16.7422 44.7331 17.3672 44.0456 17.7422C43.5534 18.0078 42.987 18.1406 42.3464 18.1406Z" fill="black"/>
</svg>
