<svg width="20" height="20" viewBox="0 0 20 20" fill="none" xmlns="http://www.w3.org/2000/svg">
<path d="M15.8334 5.83341H13.3334V5.00008C13.3334 4.11603 12.9822 3.26818 12.357 2.64306C11.7319 2.01794 10.8841 1.66675 10 1.66675C9.11597 1.66675 8.26812 2.01794 7.643 2.64306C7.01788 3.26818 6.66669 4.11603 6.66669 5.00008V5.83341H4.16669C3.94568 5.83341 3.73372 5.92121 3.57744 6.07749C3.42116 6.23377 3.33336 6.44573 3.33336 6.66675V15.8334C3.33336 16.4965 3.59675 17.1323 4.06559 17.6012C4.53443 18.07 5.17032 18.3334 5.83336 18.3334H14.1667C14.8297 18.3334 15.4656 18.07 15.9345 17.6012C16.4033 17.1323 16.6667 16.4965 16.6667 15.8334V6.66675C16.6667 6.44573 16.5789 6.23377 16.4226 6.07749C16.2663 5.92121 16.0544 5.83341 15.8334 5.83341ZM8.33336 5.00008C8.33336 4.55805 8.50895 4.13413 8.82151 3.82157C9.13408 3.50901 9.558 3.33341 10 3.33341C10.4421 3.33341 10.866 3.50901 11.1785 3.82157C11.4911 4.13413 11.6667 4.55805 11.6667 5.00008V5.83341H8.33336V5.00008ZM15 15.8334C15 16.0544 14.9122 16.2664 14.7559 16.4227C14.5997 16.579 14.3877 16.6667 14.1667 16.6667H5.83336C5.61234 16.6667 5.40038 16.579 5.2441 16.4227C5.08782 16.2664 5.00003 16.0544 5.00003 15.8334V7.50008H6.66669V8.33341C6.66669 8.55443 6.75449 8.76639 6.91077 8.92267C7.06705 9.07895 7.27901 9.16675 7.50003 9.16675C7.72104 9.16675 7.933 9.07895 8.08928 8.92267C8.24556 8.76639 8.33336 8.55443 8.33336 8.33341V7.50008H11.6667V8.33341C11.6667 8.55443 11.7545 8.76639 11.9108 8.92267C12.067 9.07895 12.279 9.16675 12.5 9.16675C12.721 9.16675 12.933 9.07895 13.0893 8.92267C13.2456 8.76639 13.3334 8.55443 13.3334 8.33341V7.50008H15V15.8334Z" fill="#121212"/>
</svg>
