<svg width="91" height="91" viewBox="0 0 91 91" fill="none" xmlns="http://www.w3.org/2000/svg">
<rect width="91" height="91" rx="45.5" fill="#190D40"/>
<g clip-path="url(#clip0_150_575)">
<path fill-rule="evenodd" clip-rule="evenodd" d="M61.9094 33.0945C62.3781 33.601 62.6414 34.288 62.6414 35.0042C62.6414 35.7205 62.3781 36.4074 61.9094 36.9139L43.1711 57.1599C42.9234 57.4276 42.6294 57.6398 42.3059 57.7847C41.9823 57.9295 41.6355 58.0041 41.2852 58.0041C40.935 58.0041 40.5882 57.9295 40.2646 57.7847C39.941 57.6398 39.647 57.4276 39.3994 57.1599L30.0894 47.1027C29.8506 46.8535 29.6602 46.5554 29.5291 46.2259C29.3981 45.8963 29.3292 45.5419 29.3263 45.1832C29.3234 44.8246 29.3866 44.4689 29.5123 44.1369C29.638 43.805 29.8237 43.5034 30.0584 43.2497C30.2931 42.9961 30.5723 42.7956 30.8795 42.6597C31.1867 42.5239 31.5159 42.4556 31.8479 42.4587C32.1798 42.4618 32.5079 42.5363 32.8129 42.6779C33.1179 42.8195 33.3938 43.0252 33.6244 43.2832L41.2844 51.5596L58.3727 33.0945C58.6049 32.8435 58.8806 32.6444 59.184 32.5085C59.4874 32.3727 59.8126 32.3027 60.1411 32.3027C60.4695 32.3027 60.7947 32.3727 61.0981 32.5085C61.4016 32.6444 61.6772 32.8435 61.9094 33.0945Z" fill="white"/>
</g>
<defs>
<clipPath id="clip0_150_575">
<rect width="40" height="43.2184" fill="white" transform="translate(26 23.8909)"/>
</clipPath>
</defs>
</svg>
